<svg width="71" height="71" viewBox="0 0 71 71" fill="none" xmlns="http://www.w3.org/2000/svg">
<g clip-path="url(#clip0_240_531)">
<path d="M33.4085 60.2435C33.9632 60.7981 34.7156 61.1096 35.5 61.1096C36.2844 61.1096 37.0368 60.7981 37.5915 60.2435L54.3268 43.5082C54.6094 43.2353 54.8348 42.9088 54.9898 42.5479C55.1448 42.187 55.2265 41.7988 55.2299 41.406C55.2333 41.0132 55.1584 40.6236 55.0097 40.2601C54.8609 39.8965 54.6413 39.5662 54.3635 39.2884C54.0857 39.0107 53.7554 38.791 53.3919 38.6422C53.0283 38.4935 52.6387 38.4186 52.2459 38.4221C51.8531 38.4255 51.4649 38.5071 51.104 38.6621C50.7431 38.8172 50.4166 39.0425 50.1438 39.3251L38.4583 51.0105L38.4583 11.8333C38.4583 11.0487 38.1467 10.2962 37.5919 9.74144C37.0371 9.18664 36.2846 8.87496 35.5 8.87496C34.7154 8.87496 33.9629 9.18664 33.4081 9.74144C32.8534 10.2962 32.5417 11.0487 32.5417 11.8333L32.5417 51.0105L20.8563 39.3251C20.2983 38.7862 19.551 38.488 18.7754 38.4948C17.9997 38.5015 17.2577 38.8126 16.7092 39.3611C16.1607 39.9096 15.8496 40.6516 15.8428 41.4273C15.8361 42.2029 16.1343 42.9502 16.6732 43.5082L33.4085 60.2435Z" fill="white"/>
</g>
<defs>
<clipPath id="clip0_240_531">
<rect width="71" height="71" fill="white" transform="matrix(-1 0 0 -1 71 71)"/>
</clipPath>
</defs>
</svg>
